# xmcd
#
# Track frame offsets:
#	150
#	15055
#	33297
#	51637
#	67345
#	84130
#	97440
#	111462
#	123575
#	138662
#	150715
#
# Disc length: 2193
#
# Revision: 2
# Processed by: cddbd v1.5.1PL0 Copyright (c) Steve Scherf et al.
# Submitted via: audiograbber 1.81.00
# Normalized: r1:DSETVAR1
#
DISCID=9c088f0b
DTITLE=Various Artist - CDX VOLUME 33 JUNE 1992
DYEAR=1992
DGENRE=Country
TTITLE0=SHUCKS - BACK ON THE RIGHT TRACK
TTITLE1=EVANGELINE - BAYOU BOY
TTITLE2=McBRIDE and THE RIDE - GOING OUT OF MY MIND
TTITLE3=CURTIS WRIGHT - HOMETOWN RADIO
TTITLE4=STACY DEAN CAMPBELL - ROSALEE
TTITLE5=TRACY LAWRENCE - RUNNIN' BEHIND
TTITLE6=AARON BARKER - TASTE OF FREEDOM
TTITLE7=DIXIANA - THAT'S WHAT I'M WORKING ON TONIGHT
TTITLE8=PAULETTE CARLSON - THE CHAIN JUST BROKE
TTITLE9=RAY PRICE and FARON YOUNG - TOO BIG TO FIGHT
TTITLE10=PIRATES OF THE MISSISSIPPI - TOO MUCH
EXTD=
EXTT0=
EXTT1=
EXTT2=\n
EXTT3=EDITED VERSION\n\n
EXTT4=
EXTT5=
EXTT6=
EXTT7=
EXTT8=
EXTT9=
EXTT10=
PLAYORDER=
